<mxfile host="app.diagrams.net" modified="2023-04-27T04:18:41.490Z" agent="Mozilla/5.0 (Windows NT 10.0; Win64; x64) AppleWebKit/537.36 (KHTML, like Gecko) Chrome/112.0.0.0 Safari/537.36" version="21.2.3" etag="hOtpr6OFnfefp9vtP4nY" type="github">
  <diagram name="PÃ¡gina-1" id="Pl_mzqB8AZkBQEZbfaDh">
    <mxGraphModel>
      <root>
        <mxCell id="0" />
        <mxCell id="1" parent="0" />
      </root>
    </mxGraphModel>
  </diagram>
</mxfile>
